<svg id="Component_1_3" data-name="Component 1 – 3" xmlns="http://www.w3.org/2000/svg" width="68" height="68" viewBox="0 0 68 68">
  <g id="Group_273" data-name="Group 273" transform="translate(-1192 -32)">
    <g id="Group_2" data-name="Group 2" transform="translate(1214.417 62.597)">
      <g id="Group_1" data-name="Group 1" transform="translate(0.18)">
        <circle id="Ellipse_2" data-name="Ellipse 2" cx="2.5" cy="2.5" r="2.5" transform="translate(0.403 0.403)" fill="#fff"/>
        <circle id="Ellipse_5" data-name="Ellipse 5" cx="2.5" cy="2.5" r="2.5" transform="translate(0.403 9.403)" fill="#fff"/>
        <circle id="Ellipse_3" data-name="Ellipse 3" cx="2.5" cy="2.5" r="2.5" transform="translate(9.403 0.403)" fill="#fff"/>
        <circle id="Ellipse_4" data-name="Ellipse 4" cx="2.5" cy="2.5" r="2.5" transform="translate(9.403 9.403)" fill="#fff"/>
      </g>
    </g>
    <g id="Group_272" data-name="Group 272" transform="translate(1232.417 62.597)">
      <g id="Group_1-2" data-name="Group 1" transform="translate(0.18)">
        <circle id="Ellipse_2-2" data-name="Ellipse 2" cx="2.5" cy="2.5" r="2.5" transform="translate(0.403 0.403)" fill="#fff"/>
        <circle id="Ellipse_5-2" data-name="Ellipse 5" cx="2.5" cy="2.5" r="2.5" transform="translate(0.403 9.403)" fill="#fff"/>
      </g>
    </g>
    <g id="Group_270" data-name="Group 270" transform="translate(1214.417 53.597)">
      <g id="Group_1-3" data-name="Group 1" transform="translate(0.18)">
        <circle id="Ellipse_2-3" data-name="Ellipse 2" cx="2.5" cy="2.5" r="2.5" transform="translate(0.403 0.403)" fill="#fff"/>
        <circle id="Ellipse_3-2" data-name="Ellipse 3" cx="2.5" cy="2.5" r="2.5" transform="translate(9.403 0.403)" fill="#fff"/>
      </g>
      <g id="Group_271" data-name="Group 271" transform="translate(18.18)">
        <circle id="Ellipse_2-4" data-name="Ellipse 2" cx="2.5" cy="2.5" r="2.5" transform="translate(0.403 0.403)" fill="#fff"/>
      </g>
    </g>
  </g>
  <circle id="Ellipse_11" data-name="Ellipse 11" cx="34" cy="34" r="34" fill="none" opacity="0.3"/>
  <circle id="Ellipse_10" data-name="Ellipse 10" cx="25" cy="25" r="25" transform="translate(9 9)" fill="none" opacity="0.268"/>
</svg>
